<svg width="1440" height="820" viewBox="0 0 1440 820" fill="none" xmlns="http://www.w3.org/2000/svg">
<g clip-path="url(#clip0_)">
<g filter="url(#filter0_d_)">
<rect x="541" y="140" width="358" height="640" fill="#242424"/>
</g>
<mask id="mask0_" style="mask-type:alpha" maskUnits="userSpaceOnUse" x="541" y="140" width="358" height="600">
<rect x="541" y="140" width="358" height="640" fill="#202024"/>
</mask>
<g mask="url(#mask0_)">
<path d="M899 208.325V-300.916L719.5 -415.556L540 -300.916V208.325L719.5 322.972L899 208.325Z" fill="#09090A"/>
<g style="mix-blend-mode:luminosity" opacity="0.4">
<path d="M541.801 94.8328V209.066L631.101 266.187L720.4 209.066V94.8328L631.101 37.711L541.801 94.8328Z" fill="url(#paint0_linear_)"/>
<path d="M541.801 -19.4056V94.8272L631.101 151.949L720.4 94.8272V-19.4056L631.101 -76.5275L541.801 -19.4056Z" fill="url(#paint1_linear_)"/>
<path d="M720.4 209.065V94.8325L809.7 37.7106L899 94.8325V209.065L809.7 266.187L720.4 209.065Z" fill="url(#paint2_linear_)"/>
<path d="M899 -19.4056V94.8272L809.7 151.949L720.4 94.8272V-19.4056L809.7 -76.5275L899 -19.4056Z" fill="url(#paint3_linear_)"/>
<path d="M809.7 266.211V151.979L720.4 94.8568L631.101 151.979V266.211L720.4 323.333L809.7 266.211Z" fill="url(#paint4_linear_)"/>
</g>
</g>
<rect x="680" y="156" width="80" height="8" fill="#121214"/>
<g filter="url(#filter1_d_)">
<rect x="688" width="64" height="158" fill="url(#paint5_linear_)"/>
</g>
</g>
<defs>
<filter id="filter0_d_" x="537.5" y="136.5" width="370" height="740" filterUnits="userSpaceOnUse" color-interpolation-filters="sRGB">
<feFlood flood-opacity="0" result="BackgroundImageFix"/>
<feColorMatrix in="SourceAlpha" type="matrix" values="0 0 0 0 0 0 0 0 0 0 0 0 0 0 0 0 0 0 127 0" result="hardAlpha"/>
<feMorphology radius="0.5" operator="dilate" in="SourceAlpha" result="effect1_dropShadow_"/>
<feOffset dx="1" dy="1"/>
<feGaussianBlur stdDeviation="2"/>
<feComposite in2="hardAlpha" operator="out"/>
<feColorMatrix type="matrix" values="0 0 0 0 0.0375 0 0 0 0 0.0375 0 0 0 0 0.0375 0 0 0 0.85 0"/>
<feBlend mode="color-burn" in2="BackgroundImageFix" result="effect1_dropShadow_"/>
<feBlend mode="normal" in="SourceGraphic" in2="effect1_dropShadow_" result="shape"/>
</filter>
<filter id="filter1_d_" x="684.5" y="-3.5" width="73" height="167" filterUnits="userSpaceOnUse" color-interpolation-filters="sRGB">
<feFlood flood-opacity="0" result="BackgroundImageFix"/>
<feColorMatrix in="SourceAlpha" type="matrix" values="0 0 0 0 0 0 0 0 0 0 0 0 0 0 0 0 0 0 127 0" result="hardAlpha"/>
<feMorphology radius="0.5" operator="dilate" in="SourceAlpha" result="effect1_dropShadow_"/>
<feOffset dx="1" dy="1"/>
<feGaussianBlur stdDeviation="2"/>
<feComposite in2="hardAlpha" operator="out"/>
<feColorMatrix type="matrix" values="0 0 0 0 0.0375 0 0 0 0 0.0375 0 0 0 0 0.0375 0 0 0 0.85 0"/>
<feBlend mode="color-burn" in2="BackgroundImageFix" result="effect1_dropShadow_"/>
<feBlend mode="normal" in="SourceGraphic" in2="effect1_dropShadow_" result="shape"/>
</filter>
<linearGradient id="paint0_linear_" x1="631.101" y1="260.934" x2="527.538" y2="101.874" gradientUnits="userSpaceOnUse">
<stop stop-color="#8257E5"/>
<stop offset="1" stop-color="#FF008E" stop-opacity="0"/>
</linearGradient>
<linearGradient id="paint1_linear_" x1="631.101" y1="146.695" x2="527.538" y2="-12.364" gradientUnits="userSpaceOnUse">
<stop stop-color="#8257E5"/>
<stop offset="1" stop-color="#FF008E" stop-opacity="0"/>
</linearGradient>
<linearGradient id="paint2_linear_" x1="899" y1="215.485" x2="711.148" y2="113.463" gradientUnits="userSpaceOnUse">
<stop stop-color="#FF008E" stop-opacity="0"/>
<stop offset="1" stop-color="#FFCD1E"/>
</linearGradient>
<linearGradient id="paint3_linear_" x1="809.7" y1="146.695" x2="913.263" y2="-12.364" gradientUnits="userSpaceOnUse">
<stop stop-color="#8257E5"/>
<stop offset="1" stop-color="#FF008E" stop-opacity="0"/>
</linearGradient>
<linearGradient id="paint4_linear_" x1="720.4" y1="100.11" x2="823.963" y2="259.17" gradientUnits="userSpaceOnUse">
<stop stop-color="#8257E5"/>
<stop offset="1" stop-color="#FF008E" stop-opacity="0"/>
</linearGradient>
<linearGradient id="paint5_linear_" x1="720" y1="-9.23872e-07" x2="720" y2="158" gradientUnits="userSpaceOnUse">
<stop offset="0.25" stop-color="#161616"/>
<stop offset="0.729167" stop-color="#242424"/>
</linearGradient>
<clipPath id="clip0_">
<rect width="1440" height="820" fill="white"/>
</clipPath>
</defs>
</svg>
